<svg width="1184" height="651" xmlns="http://www.w3.org/2000/svg"><path d="M-51-1l-7 617 1-42z" fill="#031325" stroke="#031325"/><path d="M-51-1l-6 575 21-442z" fill="#071a2e" stroke="#071a2e"/><path d="M-51-1l15 133 25-70z" fill="#031325" stroke="#031325"/><path d="M-51-1l40 63-6-41z" fill="#021122" stroke="#021122"/><path d="M-51-1l34 22L19-2z" fill="#011021" stroke="#011021"/><path d="M-51-1l70-1 132-46z" fill="#021122" stroke="#021122"/><path d="M19-2l-36 23 54 19z" fill="#021223" stroke="#021223"/><path d="M19-2l18 42L67-8z" fill="#031224" stroke="#031224"/><path d="M19-2l48-6 84-40z" fill="#021224" stroke="#021224"/><path d="M67-8L37 40l75-5z" fill="#041427" stroke="#041427"/><path d="M67-8l45 43 10-16z" fill="#041528" stroke="#041528"/><path d="M67-8l55 27 29-67z" fill="#031326" stroke="#031326"/><path d="M151-48l-29 67 95-34z" fill="#041528" stroke="#041528"/><path d="M151-48l66 33 40 3z" fill="#051629" stroke="#051629"/><path d="M151-48l106 36 71-8z" fill="#05172a" stroke="#05172a"/><path d="M151-48l177 28 108-10z" fill="#06182b" stroke="#06182b"/><path d="M151-48l285 18 81-16z" fill="#07182c" stroke="#07182c"/><path d="M151-48l366 2 187-11z" fill="#08192c" stroke="#08192c"/><path d="M217-15l-95 34 109 38z" fill="#05192c" stroke="#05192c"/><path d="M217-15l14 72 26-69z" fill="#06192e" stroke="#06192e"/><path d="M257-12l-26 69 47-38z" fill="#061b2f" stroke="#061b2f"/><path d="M257-12l21 31 42-17z" fill="#06192e" stroke="#06192e"/><path d="M257-12l63 14 8-22z" fill="#06192d" stroke="#06192d"/><path d="M328-20l-8 22 48 6zM328-20l40 28 50-22zM328-20l90 6 18-16z" fill="#071a2e" stroke="#071a2e"/><path d="M418-14L368 8l75 44z" fill="#081c32" stroke="#081c32"/><path d="M418-14l25 66 49-19z" fill="#091d33" stroke="#091d33"/><path d="M418-14l74 47-56-63z" fill="#081c30" stroke="#081c30"/><path d="M436-30l56 63 25-79z" fill="#081b2f" stroke="#081b2f"/><path d="M517-46l-25 79 67-42z" fill="#071a2f" stroke="#071a2f"/><path d="M517-46l42 37 78-21z" fill="#06172a" stroke="#06172a"/><path d="M517-46l120 16 67-27z" fill="#051427" stroke="#051427"/><path d="M559-9l-67 42 65 23z" fill="#081c31" stroke="#081c31"/><path d="M559-9l-2 65L659 6z" fill="#06192e" stroke="#06192e"/><path d="M559-9L659 6l-22-36z" fill="#05172a" stroke="#05172a"/><path d="M637-30l22 36 45-63z" fill="#041426" stroke="#041426"/><path d="M704-57L659 6l55 11z" fill="#031427" stroke="#031427"/><path d="M704-57l10 74 18-4z" fill="#031426" stroke="#031426"/><path d="M704-57l28 70 28-42z" fill="#031326" stroke="#031326"/><path d="M704-57l56 28 157-14z" fill="#051426" stroke="#051426"/><path d="M704-57l213 14 131-8z" fill="#07172a" stroke="#07172a"/><path d="M704-57l344 6h129z" fill="#081a2e" stroke="#081a2e"/><path d="M760-29l-28 42 90-14z" fill="#051629" stroke="#051629"/><path d="M760-29l62 28 95-42z" fill="#05172a" stroke="#05172a"/><path d="M822-1l-90 14 84 27z" fill="#05182c" stroke="#05182c"/><path d="M822-1l-6 41 51-42z" fill="#06192d" stroke="#06192d"/><path d="M822-1l45-1 50-41z" fill="#06192c" stroke="#06192c"/><path d="M867-2l-51 42 63-3z" fill="#071b2f" stroke="#071b2f"/><path d="M867-2l12 39 65-11z" fill="#081c31" stroke="#081c31"/><path d="M867-2l77 28-27-69z" fill="#071a2f" stroke="#071a2f"/><path d="M917-43l27 69 64-39z" fill="#081c31" stroke="#081c31"/><path d="M917-43l91 30 40-38z" fill="#091b30" stroke="#091b30"/><path d="M1008-13l-64 39 16 26z" fill="#091f34" stroke="#091f34"/><path d="M1008-13l-48 65 40 14z" fill="#0a2036" stroke="#0a2036"/><path d="M1008-13l-8 79 37-9z" fill="#0b2137" stroke="#0b2137"/><path d="M1008-13l29 70 60-23z" fill="#0b2138" stroke="#0b2138"/><path d="M1008-13l89 47-49-85z" fill="#0a1f35" stroke="#0a1f35"/><path d="M1048-51l49 85 10-82z" fill="#0b1f35" stroke="#0b1f35"/><path d="M1048-51l59 3 70-3z" fill="#0b1e34" stroke="#0b1e34"/><path d="M1107-48l-10 82 80-85z" fill="#0c2137" stroke="#0c2137"/><path d="M1177-51l-80 85 89 14z" fill="#0d243b" stroke="#0d243b"/><path d="M1177-51l9 99 14-8z" fill="#0e253d" stroke="#0e253d"/><path d="M1177-51l23 91 48-58z" fill="#0d253c" stroke="#0d253c"/><path d="M1248-18l-48 58 13 72z" fill="#102841" stroke="#102841"/><path d="M1248-18l-35 130 13 85z" fill="#122c46" stroke="#122c46"/><path d="M1248-18l-22 215 27 90z" fill="#132f4b" stroke="#132f4b"/><path d="M-17 21l6 41 48-22z" fill="#031325" stroke="#031325"/><path d="M37 40l-48 22 36 34z" fill="#041528" stroke="#041528"/><path d="M37 40L25 96l87 17z" fill="#05182c" stroke="#05182c"/><path d="M37 40l75 73V35z" fill="#05172b" stroke="#05172b"/><path d="M112 35v78l16-7z" fill="#061a2e" stroke="#061a2e"/><path d="M112 35l16 71 97-26z" fill="#071b2f" stroke="#071b2f"/><path d="M112 35l113 45-103-61z" fill="#06192d" stroke="#06192d"/><path d="M122 19l103 61 6-23z" fill="#071b2f" stroke="#071b2f"/><path d="M231 57l-6 23 55 34z" fill="#091e34" stroke="#091e34"/><path d="M231 57l49 57-2-95z" fill="#081d33" stroke="#081d33"/><path d="M278 19l2 95 62-47z" fill="#091e34" stroke="#091e34"/><path d="M278 19l64 48-22-65zM320 2l22 65 26-59z" fill="#081c31" stroke="#081c31"/><path d="M368 8l-26 59 33 2z" fill="#091e33" stroke="#091e33"/><path d="M368 8l7 61 68-17z" fill="#091e34" stroke="#091e34"/><path d="M443 52l-68 17 61 7z" fill="#0a2036" stroke="#0a2036"/><path d="M443 52l-7 24 57 23z" fill="#0b2137" stroke="#0b2137"/><path d="M443 52l50 47-1-66z" fill="#0a2037" stroke="#0a2037"/><path d="M492 33l1 66 64-43z" fill="#091f35" stroke="#091f35"/><path d="M557 56l-64 43 89 2z" fill="#0a1f36" stroke="#0a1f36"/><path d="M557 56l25 45 49-22z" fill="#081d33" stroke="#081d33"/><path d="M557 56l74 23 28-73z" fill="#071a2f" stroke="#071a2f"/><path d="M659 6l-28 73 83-62z" fill="#05182c" stroke="#05182c"/><path d="M714 17l-83 62 32 34z" fill="#071a2f" stroke="#071a2f"/><path d="M714 17l-51 96 72-20z" fill="#06192e" stroke="#06192e"/><path d="M714 17l21 76-3-80z" fill="#05172b" stroke="#05172b"/><path d="M732 13l3 80 81-53z" fill="#06192d" stroke="#06192d"/><path d="M816 40l-81 53 92 19z" fill="#081d31" stroke="#081d31"/><path d="M816 40l11 72 28-28z" fill="#081d33" stroke="#081d33"/><path d="M816 40l39 44 24-47z" fill="#081c31" stroke="#081c31"/><path d="M879 37l-24 47 99 20z" fill="#0a2035" stroke="#0a2035"/><path d="M879 37l75 67 6-52z" fill="#0a2036" stroke="#0a2036"/><path d="M879 37l81 15-16-26z" fill="#091e34" stroke="#091e34"/><path d="M960 52l-6 52 46-38z" fill="#0b2239" stroke="#0b2239"/><path d="M1037 57l-37 9 12 72z" fill="#0d243c" stroke="#0d243c"/><path d="M1037 57l-25 81 58-53z" fill="#0d253d" stroke="#0d253d"/><path d="M1037 57l33 28 27-51z" fill="#0d243c" stroke="#0d243c"/><path d="M1097 34l-27 51 47 16z" fill="#0e263e" stroke="#0e263e"/><path d="M1097 34l20 67 69-53z" fill="#0e273f" stroke="#0e273f"/><path d="M1186 48l-69 53 75-2z" fill="#102942" stroke="#102942"/><path d="M1186 48l6 51 8-59z" fill="#0f2942" stroke="#0f2942"/><path d="M1200 40l-8 59 21 13z" fill="#112a44" stroke="#112a44"/><path d="M-11 62l-25 70 61-36z" fill="#051629" stroke="#051629"/><path d="M25 96l-61 36 41 37z" fill="#06192d" stroke="#06192d"/><path d="M25 96L5 169l55-15z" fill="#061a2f" stroke="#061a2f"/><path d="M25 96l35 58 52-41z" fill="#061b2f" stroke="#061b2f"/><path d="M112 113l-52 41 21 59z" fill="#081d32" stroke="#081d32"/><path d="M112 113L81 213l73-5zM112 113l42 95 10-85z" fill="#091e34" stroke="#091e34"/><path d="M112 113l52 10-36-17z" fill="#081d32" stroke="#081d32"/><path d="M128 106l36 17 61-43z" fill="#081d33" stroke="#081d33"/><path d="M225 80l-61 43 65 12z" fill="#091f35" stroke="#091f35"/><path d="M225 80l4 55 51-21z" fill="#0a2036" stroke="#0a2036"/><path d="M280 114l-51 21 23 13z" fill="#0a2139" stroke="#0a2139"/><path d="M280 114l-28 34 15 34z" fill="#0b2239" stroke="#0b2239"/><path d="M280 114l-13 68 66-23z" fill="#0b233a" stroke="#0b233a"/><path d="M280 114l53 45 9-92z" fill="#0b2138" stroke="#0b2138"/><path d="M342 67l-9 92 40-19z" fill="#0b223a" stroke="#0b223a"/><path d="M342 67l31 73 2-71z" fill="#0a2137" stroke="#0a2137"/><path d="M375 69l-2 71 63-64z" fill="#0b2138" stroke="#0b2138"/><path d="M436 76l-63 64 104 38zM436 76l41 102 16-79z" fill="#0c243c" stroke="#0c243c"/><path d="M493 99l-16 79 38-6z" fill="#0d253c" stroke="#0d253c"/><path d="M493 99l22 73 69-45z" fill="#0c233a" stroke="#0c233a"/><path d="M493 99l91 28-2-26z" fill="#0b2137" stroke="#0b2137"/><path d="M582 101l2 26 21 16z" fill="#0a2037" stroke="#0a2037"/><path d="M582 101l23 42 26-64z" fill="#091f35" stroke="#091f35"/><path d="M631 79l-26 64 58-30z" fill="#091e34" stroke="#091e34"/><path d="M663 113l-58 30 46 59z" fill="#0a2036" stroke="#0a2036"/><path d="M663 113l-12 89 36-4z" fill="#0a1f36" stroke="#0a1f36"/><path d="M663 113l24 85 21-76z" fill="#091e34" stroke="#091e34"/><path d="M663 113l45 9 27-29z" fill="#071c31" stroke="#071c31"/><path d="M735 93l-27 29 80 43z" fill="#081e33" stroke="#081e33"/><path d="M735 93l53 72 39-53z" fill="#091f35" stroke="#091f35"/><path d="M827 112l-39 53 83 36z" fill="#0b2238" stroke="#0b2238"/><path d="M827 112l44 89 22-27z" fill="#0b233a" stroke="#0b233a"/><path d="M827 112l66 62-38-90z" fill="#0b2138" stroke="#0b2138"/><path d="M855 84l38 90 42-16z" fill="#0c233b" stroke="#0c233b"/><path d="M855 84l80 74 19-54z" fill="#0c233a" stroke="#0c233a"/><path d="M954 104l-19 54 77-20z" fill="#0d253e" stroke="#0d253e"/><path d="M954 104l58 34-12-72z" fill="#0d243c" stroke="#0d243c"/><path d="M1070 85l-58 53 63 21zM1070 85l5 74 42-58z" fill="#0f2841" stroke="#0f2841"/><path d="M1117 101l-42 58 79-15z" fill="#102a44" stroke="#102a44"/><path d="M1117 101l37 43 38-45z" fill="#112b44" stroke="#112b44"/><path d="M1192 99l-38 45h47z" fill="#122d47" stroke="#122d47"/><path d="M1192 99l9 45 12-32z" fill="#122c47" stroke="#122c47"/><path d="M1213 112l-12 32 25 53z" fill="#132e49" stroke="#132e49"/><path d="M-36 132l-21 442 28-276z" fill="#051629" stroke="#051629"/><path d="M-36 132l7 166 28-113z" fill="#071a2e" stroke="#071a2e"/><path d="M-36 132l35 53 6-16z" fill="#06192d" stroke="#06192d"/><path d="M5 169l-6 16 37 30z" fill="#071b2f" stroke="#071b2f"/><path d="M5 169l31 46 24-61z" fill="#071b30" stroke="#071b30"/><path d="M60 154l-24 61 45-2z" fill="#081c32" stroke="#081c32"/><path d="M164 123l-10 85 75-73z" fill="#0a2037" stroke="#0a2037"/><path d="M229 135l-75 73 53 19z" fill="#0a2138" stroke="#0a2138"/><path d="M229 135l-22 92 45-79z" fill="#0b2239" stroke="#0b2239"/><path d="M252 148l-45 79 60-45z" fill="#0b233a" stroke="#0b233a"/><path d="M333 159l-66 23 71 17zM333 159l5 40 35-59z" fill="#0c243b" stroke="#0c243b"/><path d="M373 140l-35 59 68 32z" fill="#0d253d" stroke="#0d253d"/><path d="M373 140l33 91 20-12z" fill="#0d263e" stroke="#0d263e"/><path d="M373 140l53 79 51-41z" fill="#0d263d" stroke="#0d263d"/><path d="M477 178l-51 41 75-34z" fill="#0e263f" stroke="#0e263f"/><path d="M477 178l24 7 14-13zM515 172l-14 13 48 12z" fill="#0d253d" stroke="#0d253d"/><path d="M515 172l34 25 35-70z" fill="#0c233a" stroke="#0c233a"/><path d="M584 127l-35 70 56-54zM605 143l-56 54 102 5z" fill="#0b2239" stroke="#0b2239"/><path d="M708 122l-21 76 37-24z" fill="#081e33" stroke="#081e33"/><path d="M708 122l16 52 64-9z" fill="#091e35" stroke="#091e35"/><path d="M724 174l-37 24 35 63z" fill="#091f35" stroke="#091f35"/><path d="M724 174l-2 87 57-54zM724 174l55 33 9-42z" fill="#0a2037" stroke="#0a2037"/><path d="M788 165l-9 42 45 28z" fill="#0b2239" stroke="#0b2239"/><path d="M788 165l36 70 47-34z" fill="#0c233a" stroke="#0c233a"/><path d="M893 174l-22 27 72 22z" fill="#0d253d" stroke="#0d253d"/><path d="M893 174l50 49-8-65z" fill="#0d253e" stroke="#0d253e"/><path d="M935 158l8 65 49 10zM935 158l57 75 20-95z" fill="#0e2740" stroke="#0e2740"/><path d="M1012 138l-20 95 42 5zM1012 138l22 100 41-79z" fill="#102942" stroke="#102942"/><path d="M1075 159l-41 79 53-59z" fill="#102a44" stroke="#102a44"/><path d="M1075 159l12 20 46 4z" fill="#112b45" stroke="#112b45"/><path d="M1075 159l58 24 21-39z" fill="#112c45" stroke="#112c45"/><path d="M1087 179l-53 59 33 9z" fill="#112b45" stroke="#112b45"/><path d="M1087 179l-20 68 66-64z" fill="#112c46" stroke="#112c46"/><path d="M1154 144l-21 39 60 32z" fill="#122d48" stroke="#122d48"/><path d="M1154 144l39 71 8-71z" fill="#122e49" stroke="#122e49"/><path d="M1201 144l-8 71 33-18z" fill="#132f4a" stroke="#132f4a"/><path d="M-1 185l-28 113 65-83z" fill="#081c30" stroke="#081c30"/><path d="M36 215l-65 83 38-3z" fill="#081c31" stroke="#081c31"/><path d="M36 215L9 295l103-32zM36 215l76 48-31-50z" fill="#091e34" stroke="#091e34"/><path d="M81 213l31 50 42-55z" fill="#0a1f36" stroke="#0a1f36"/><path d="M154 208l-42 55 22 34z" fill="#0b2138" stroke="#0b2138"/><path d="M154 208l-20 89 59-4z" fill="#0b2239" stroke="#0b2239"/><path d="M154 208l39 85 14-66z" fill="#0b223a" stroke="#0b223a"/><path d="M207 227l-14 66 60-7z" fill="#0c243b" stroke="#0c243b"/><path d="M207 227l46 59 14-104z" fill="#0c243c" stroke="#0c243c"/><path d="M267 182l-14 104 85-87z" fill="#0d243c" stroke="#0d243c"/><path d="M338 199l-85 87 99-10z" fill="#0e263e" stroke="#0e263e"/><path d="M338 199l14 77 37-25z" fill="#0e263f" stroke="#0e263f"/><path d="M338 199l51 52 17-20z" fill="#0e263e" stroke="#0e263e"/><path d="M406 231l-17 20 89 45z" fill="#0f2840" stroke="#0f2840"/><path d="M406 231l72 65-52-77z" fill="#0f2740" stroke="#0f2740"/><path d="M426 219l52 77 23-111z" fill="#0f2840" stroke="#0f2840"/><path d="M501 185l-23 111 61-32z" fill="#0f273f" stroke="#0f273f"/><path d="M501 185l38 79 10-67zM549 197l-10 67 46 18z" fill="#0d253d" stroke="#0d253d"/><path d="M549 197l36 85 66-80z" fill="#0c233b" stroke="#0c233b"/><path d="M651 202l-66 80 60 7z" fill="#0c233a" stroke="#0c233a"/><path d="M651 202l-6 87 38-33z" fill="#0b2138" stroke="#0b2138"/><path d="M651 202l32 54 4-58z" fill="#0a2037" stroke="#0a2037"/><path d="M687 198l-4 58 39 5z" fill="#0a2036" stroke="#0a2036"/><path d="M779 207l-57 54 68 29z" fill="#0b2239" stroke="#0b2239"/><path d="M779 207l11 83 34-55z" fill="#0c233a" stroke="#0c233a"/><path d="M824 235l-34 55 60-41zM824 235l26 14 21-48z" fill="#0d243c" stroke="#0d243c"/><path d="M871 201l-21 48 86 19z" fill="#0d263e" stroke="#0d263e"/><path d="M871 201l65 67 7-45z" fill="#0e263f" stroke="#0e263f"/><path d="M943 223l-7 45 56-35z" fill="#0f2841" stroke="#0f2841"/><path d="M992 233l-56 35 79-15z" fill="#102942" stroke="#102942"/><path d="M992 233l23 20 19-15z" fill="#102a44" stroke="#102a44"/><path d="M1034 238l-19 15 52-6z" fill="#112b45" stroke="#112b45"/><path d="M1133 183l-66 64 49 35z" fill="#122d47" stroke="#122d47"/><path d="M1133 183l-17 99 58-36z" fill="#132e49" stroke="#132e49"/><path d="M1133 183l41 63 19-31z" fill="#132f49" stroke="#132f49"/><path d="M1193 215l-19 31 79 41z" fill="#15314c" stroke="#15314c"/><path d="M1193 215l60 72-27-90z" fill="#15314d" stroke="#15314d"/><path d="M-29 298l-28 276 37-186z" fill="#041528" stroke="#041528"/><path d="M-29 298l9 90 12-61z" fill="#05172a" stroke="#05172a"/><path d="M-29 298l21 29 17-32zM9 295l-17 32 37 10z" fill="#06192d" stroke="#06192d"/><path d="M9 295l20 42 33 7z" fill="#06192e" stroke="#06192e"/><path d="M9 295l53 49 50-81z" fill="#081c31" stroke="#081c31"/><path d="M112 263l-50 81 72-47z" fill="#091d33" stroke="#091d33"/><path d="M134 297l-72 47 63-1z" fill="#081c31" stroke="#081c31"/><path d="M134 297l-9 46 65-41z" fill="#091e34" stroke="#091e34"/><path d="M134 297l56 5 3-9z" fill="#0a2037" stroke="#0a2037"/><path d="M193 293l-3 9 63-16zM253 286l-63 16 68 29z" fill="#0b2239" stroke="#0b2239"/><path d="M253 286l5 45 58 25z" fill="#0b2138" stroke="#0b2138"/><path d="M253 286l63 70 36-80z" fill="#0b233b" stroke="#0b233b"/><path d="M352 276l-36 80 55-2z" fill="#0b2239" stroke="#0b2239"/><path d="M352 276l19 78 18-103z" fill="#0d253d" stroke="#0d253d"/><path d="M389 251l-18 103h80z" fill="#0c243b" stroke="#0c243b"/><path d="M389 251l62 103 27-58z" fill="#0d253e" stroke="#0d253e"/><path d="M478 296l-27 58 53-5z" fill="#0c243b" stroke="#0c243b"/><path d="M478 296l26 53 35-85z" fill="#0d253c" stroke="#0d253c"/><path d="M539 264l-35 85 82-5z" fill="#0b223a" stroke="#0b223a"/><path d="M539 264l47 80-1-62z" fill="#0c233a" stroke="#0c233a"/><path d="M585 282l1 62 38-3z" fill="#0a2037" stroke="#0a2037"/><path d="M585 282l39 59 21-52z" fill="#0b2137" stroke="#0b2137"/><path d="M645 289l-21 52 86-29z" fill="#091e34" stroke="#091e34"/><path d="M645 289l65 23-27-56z" fill="#0a2036" stroke="#0a2036"/><path d="M683 256l27 56 12-51z" fill="#0a1f35" stroke="#0a1f35"/><path d="M722 261l-12 51 80-22z" fill="#0a2036" stroke="#0a2036"/><path d="M790 290l-80 22 30 35z" fill="#091e34" stroke="#091e34"/><path d="M790 290l-50 57 75-20z" fill="#091f35" stroke="#091f35"/><path d="M790 290l25 37 35-78z" fill="#0c2239" stroke="#0c2239"/><path d="M850 249l-35 78 75 11z" fill="#0c233a" stroke="#0c233a"/><path d="M850 249l40 89 46-70z" fill="#0d253d" stroke="#0d253d"/><path d="M936 268l-46 70 53 4zM936 268l7 74 29 14z" fill="#0d243c" stroke="#0d243c"/><path d="M936 268l36 88 43-103zM1015 253l-43 103 77-31z" fill="#0f2740" stroke="#0f2740"/><path d="M1015 253l34 72 18-78zM1067 247l-18 78 67-43z" fill="#112b45" stroke="#112b45"/><path d="M1116 282l-67 43 61 20z" fill="#102a43" stroke="#102a43"/><path d="M1116 282l-6 63 40 5z" fill="#112a44" stroke="#112a44"/><path d="M1116 282l34 68 24-104z" fill="#122d48" stroke="#122d48"/><path d="M1174 246l-24 104 98-42z" fill="#132e49" stroke="#132e49"/><path d="M1174 246l74 62 5-21z" fill="#14314c" stroke="#14314c"/><path d="M1253 287l-5 21 3 85z" fill="#132f49" stroke="#132f49"/><path d="M-8 327l-12 61 45-25z" fill="#041629" stroke="#041629"/><path d="M-8 327l33 36 4-26z" fill="#06182b" stroke="#06182b"/><path d="M29 337l-4 26 37-19zM62 344l-37 19 76 11z" fill="#05182c" stroke="#05182c"/><path d="M62 344l39 30 24-31z" fill="#071a2e" stroke="#071a2e"/><path d="M125 343l-24 31 28 21z" fill="#06192e" stroke="#06192e"/><path d="M125 343l4 52 59 9z" fill="#071a2f" stroke="#071a2f"/><path d="M125 343l63 61 2-102z" fill="#081d32" stroke="#081d32"/><path d="M190 302l-2 102 70-73z" fill="#091f35" stroke="#091f35"/><path d="M258 331l-70 73 81-42z" fill="#091e34" stroke="#091e34"/><path d="M258 331l11 31 47-6z" fill="#0a2037" stroke="#0a2037"/><path d="M316 356l-47 6 52 5z" fill="#092036" stroke="#092036"/><path d="M316 356l5 11 50-13z" fill="#0a2037" stroke="#0a2037"/><path d="M371 354l-50 13 62 60z" fill="#0a1f35" stroke="#0a1f35"/><path d="M371 354l12 73 25-55z" fill="#091f36" stroke="#091f36"/><path d="M371 354l37 18 43-18z" fill="#0b2138" stroke="#0b2138"/><path d="M451 354l-43 18 43 48z" fill="#0a2037" stroke="#0a2037"/><path d="M451 354v66l53-71z" fill="#0b2138" stroke="#0b2138"/><path d="M504 349l-53 71 78-36zM504 349l25 35 57-40z" fill="#0a2036" stroke="#0a2036"/><path d="M586 344l-57 40 55-20z" fill="#091f35" stroke="#091f35"/><path d="M586 344l-2 20 20-2zM586 344l18 18 20-21z" fill="#091e34" stroke="#091e34"/><path d="M624 341l-20 21 61 58z" fill="#071c31" stroke="#071c31"/><path d="M624 341l41 79 27-3z" fill="#061a2e" stroke="#061a2e"/><path d="M624 341l68 76 18-105z" fill="#071b30" stroke="#071b30"/><path d="M710 312l-18 105 48-70z" fill="#061a2f" stroke="#061a2f"/><path d="M740 347l-48 70 41 1z" fill="#05192d" stroke="#05192d"/><path d="M740 347l-7 71 68 12z" fill="#071a2f" stroke="#071a2f"/><path d="M740 347l61 83 31-65z" fill="#071b31" stroke="#071b31"/><path d="M740 347l92 18-17-38z" fill="#091e34" stroke="#091e34"/><path d="M815 327l17 38 10 1z" fill="#091f35" stroke="#091f35"/><path d="M815 327l27 39 48-28z" fill="#0a2036" stroke="#0a2036"/><path d="M890 338l-48 28 58 40z" fill="#0a1f35" stroke="#0a1f35"/><path d="M890 338l10 68 43-64z" fill="#0a2138" stroke="#0a2138"/><path d="M943 342l-43 64 72-50zM972 356l-72 50 110 19z" fill="#0b2138" stroke="#0b2138"/><path d="M972 356l38 69 3-45z" fill="#0b223a" stroke="#0b223a"/><path d="M972 356l41 24 36-55z" fill="#0d253d" stroke="#0d253d"/><path d="M1049 325l-36 55 15 12z" fill="#0d253c" stroke="#0d253c"/><path d="M1049 325l-21 67 82-47z" fill="#0e263f" stroke="#0e263f"/><path d="M1110 345l-82 47 84 50z" fill="#0d253d" stroke="#0d253d"/><path d="M1110 345l2 97 26-64z" fill="#0e263e" stroke="#0e263e"/><path d="M1110 345l28 33 12-28z" fill="#102941" stroke="#102941"/><path d="M1150 350l-12 28 24-10z" fill="#102942" stroke="#102942"/><path d="M1150 350l12 18 86-60z" fill="#112b45" stroke="#112b45"/><path d="M1248 308l-86 60 89 25z" fill="#122b46" stroke="#122b46"/><path d="M-20 388l-37 186 43-105z" fill="#06192c" stroke="#06192c"/><path d="M-20 388l6 81 58-20z" fill="#05172a" stroke="#05172a"/><path d="M-20 388l64 61-19-86z" fill="#041529" stroke="#041529"/><path d="M25 363l19 86 57-75z" fill="#04172a" stroke="#04172a"/><path d="M101 374l-57 75 69-3zM101 374l12 72 16-51z" fill="#06192d" stroke="#06192d"/><path d="M129 395l-16 51 57 21zM129 395l41 72 18-63z" fill="#071c31" stroke="#071c31"/><path d="M188 404l-18 63 51-41z" fill="#081e34" stroke="#081e34"/><path d="M188 404l33 22 48-64z" fill="#081d32" stroke="#081d32"/><path d="M269 362l-48 64 83 12z" fill="#091e34" stroke="#091e34"/><path d="M269 362l35 76 17-71z" fill="#081e33" stroke="#081e33"/><path d="M321 367l-17 71 79-11z" fill="#0a1f36" stroke="#0a1f36"/><path d="M408 372l-25 55 68-7z" fill="#0a2037" stroke="#0a2037"/><path d="M451 420l-68 7 85 17z" fill="#0b2239" stroke="#0b2239"/><path d="M451 420l17 24 61-60z" fill="#0b2138" stroke="#0b2138"/><path d="M529 384l-61 60 32 16z" fill="#0b2239" stroke="#0b2239"/><path d="M529 384l-29 76 78-24z" fill="#0a2037" stroke="#0a2037"/><path d="M529 384l49 52 6-72z" fill="#081d33" stroke="#081d33"/><path d="M584 364l-6 72 26-74z" fill="#081c32" stroke="#081c32"/><path d="M604 362l-26 74 34 8z" fill="#091e33" stroke="#091e33"/><path d="M604 362l8 82 53-24z" fill="#081c31" stroke="#081c31"/><path d="M692 417l-27 3 16 71z" fill="#081c32" stroke="#081c32"/><path d="M692 417l-11 74 50-14z" fill="#081d32" stroke="#081d32"/><path d="M692 417l39 60 2-59z" fill="#071c31" stroke="#071c31"/><path d="M733 418l-2 59 70-47z" fill="#081d32" stroke="#081d32"/><path d="M832 365l-31 65 41-64z" fill="#081c32" stroke="#081c32"/><path d="M842 366l-41 64 99-24z" fill="#091d33" stroke="#091d33"/><path d="M900 406l-99 24 94 15z" fill="#0a1f36" stroke="#0a1f36"/><path d="M900 406l-5 39 63 30z" fill="#0c2239" stroke="#0c2239"/><path d="M900 406l58 69 52-50z" fill="#0c233b" stroke="#0c233b"/><path d="M1013 380l-3 45 18-33z" fill="#0c233a" stroke="#0c233a"/><path d="M1028 392l-18 33 69 52z" fill="#0e263e" stroke="#0e263e"/><path d="M1028 392l51 85 33-35z" fill="#0f2740" stroke="#0f2740"/><path d="M1138 378l-26 64 84 11z" fill="#102942" stroke="#102942"/><path d="M1138 378l58 75-34-85z" fill="#0f2841" stroke="#0f2841"/><path d="M1162 368l34 85 55-60z" fill="#102a43" stroke="#102a43"/><path d="M1251 393l-55 60 15 2z" fill="#112c46" stroke="#112c46"/><path d="M1251 393l-40 62 11 74z" fill="#132e49" stroke="#132e49"/><path d="M1251 393l-29 136 24 123z" fill="#15324f" stroke="#15324f"/><path d="M-14 469l-43 105 35-37z" fill="#081c30" stroke="#081c30"/><path d="M-14 469l-8 68 78-43z" fill="#071b30" stroke="#071b30"/><path d="M-14 469l70 25-12-45z" fill="#071a2f" stroke="#071a2f"/><path d="M44 449l12 45 57-48z" fill="#081b30" stroke="#081b30"/><path d="M113 446l-57 48 68 12z" fill="#091d33" stroke="#091d33"/><path d="M113 446l11 60 46-39z" fill="#091e34" stroke="#091e34"/><path d="M170 467l-46 39 101-4z" fill="#0b2037" stroke="#0b2037"/><path d="M170 467l55 35-4-76z" fill="#0a2037" stroke="#0a2037"/><path d="M221 426l4 76 52-45z" fill="#0a2138" stroke="#0a2138"/><path d="M221 426l56 31 27-19z" fill="#0a2037" stroke="#0a2037"/><path d="M277 457l-52 45 43 18z" fill="#0c243b" stroke="#0c243b"/><path d="M277 457l-9 63 49-6z" fill="#0c243c" stroke="#0c243c"/><path d="M277 457l40 57-13-76z" fill="#0b233a" stroke="#0b233a"/><path d="M304 438l13 76 66-87z" fill="#0b223a" stroke="#0b223a"/><path d="M383 427l-66 87 77 3z" fill="#0d253c" stroke="#0d253c"/><path d="M383 427l11 90 74-73z" fill="#0d243c" stroke="#0d243c"/><path d="M468 444l-74 73 83-14z" fill="#0d263e" stroke="#0d263e"/><path d="M468 444l9 59 23-43z" fill="#0d253d" stroke="#0d253d"/><path d="M500 460l-23 43 63 10z" fill="#0e253d" stroke="#0e253d"/><path d="M500 460l40 53 23-16z" fill="#0d243c" stroke="#0d243c"/><path d="M500 460l63 37 15-61z" fill="#0c2239" stroke="#0c2239"/><path d="M578 436l-15 61 49-53z" fill="#0a2137" stroke="#0a2137"/><path d="M612 444l-49 53 91 17z" fill="#0b2238" stroke="#0b2238"/><path d="M612 444l42 70 27-23z" fill="#0a2036" stroke="#0a2036"/><path d="M612 444l69 47-16-71z" fill="#091e34" stroke="#091e34"/><path d="M731 477l-50 14 67-1z" fill="#091f34" stroke="#091f34"/><path d="M731 477l17 13 53-60z" fill="#091e34" stroke="#091e34"/><path d="M801 430l-53 60 47 33z" fill="#0a2037" stroke="#0a2037"/><path d="M801 430l-6 93 61-6z" fill="#0c2239" stroke="#0c2239"/><path d="M801 430l55 87 39-72z" fill="#0b2138" stroke="#0b2138"/><path d="M895 445l-39 72 72-26z" fill="#0d243c" stroke="#0d243c"/><path d="M895 445l33 46 30-16z" fill="#0d253c" stroke="#0d253c"/><path d="M958 475l-30 16 54 26z" fill="#0e2740" stroke="#0e2740"/><path d="M958 475l24 42 28-92z" fill="#0e263f" stroke="#0e263f"/><path d="M1010 425l-28 92h69z" fill="#0f2941" stroke="#0f2941"/><path d="M1010 425l41 92 28-40z" fill="#0f2942" stroke="#0f2942"/><path d="M1079 477l-28 40 32 21z" fill="#112c46" stroke="#112c46"/><path d="M1079 477l4 61 116-25z" fill="#122e48" stroke="#122e48"/><path d="M1079 477l120 36-87-71z" fill="#122c46" stroke="#122c46"/><path d="M1112 442l87 71-3-60z" fill="#122d47" stroke="#122d47"/><path d="M1196 453l3 60 12-58z" fill="#132e49" stroke="#132e49"/><path d="M1211 455l-12 58 23 16z" fill="#14304b" stroke="#14304b"/><path d="M-22 537l-35 37 68 73z" fill="#0a1f36" stroke="#0a1f36"/><path d="M-22 537l33 110 39-87z" fill="#0b2037" stroke="#0b2037"/><path d="M-22 537l72 23 6-66z" fill="#091e34" stroke="#091e34"/><path d="M56 494l-6 66 61-32zM56 494l55 34 13-22z" fill="#0a1f35" stroke="#0a1f35"/><path d="M111 528l-61 32 58-15z" fill="#0b2138" stroke="#0b2138"/><path d="M111 528l-3 17 16-39z" fill="#0a2137" stroke="#0a2137"/><path d="M124 506l-16 39 118 22z" fill="#0c233a" stroke="#0c233a"/><path d="M124 506l102 61-1-65z" fill="#0c243b" stroke="#0c243b"/><path d="M225 502l1 65 42-47z" fill="#0d253d" stroke="#0d253d"/><path d="M268 520l-42 47 67 5z" fill="#0e2740" stroke="#0e2740"/><path d="M268 520l25 52 24-58z" fill="#0e273f" stroke="#0e273f"/><path d="M317 514l-24 58 27-10z" fill="#0f2841" stroke="#0f2841"/><path d="M317 514l3 48 61-13z" fill="#0f2840" stroke="#0f2840"/><path d="M317 514l64 35 13-32z" fill="#0e2740" stroke="#0e2740"/><path d="M394 517l-13 32 48 38z" fill="#0f2942" stroke="#0f2942"/><path d="M394 517l35 70 48-84z" fill="#0f2941" stroke="#0f2941"/><path d="M477 503l-48 84 69 20z" fill="#112b45" stroke="#112b45"/><path d="M477 503l21 104 29-31z" fill="#102a44" stroke="#102a44"/><path d="M477 503l50 73 13-63z" fill="#0f2740" stroke="#0f2740"/><path d="M540 513l-13 63 51 22z" fill="#0f2841" stroke="#0f2841"/><path d="M540 513l38 85-15-101z" fill="#0e263e" stroke="#0e263e"/><path d="M563 497l15 101 54-23z" fill="#0e263f" stroke="#0e263f"/><path d="M563 497l69 78 22-61z" fill="#0d243b" stroke="#0d243b"/><path d="M654 514l-22 61 56 24z" fill="#0d253d" stroke="#0d253d"/><path d="M654 514l34 85-7-108z" fill="#0c2239" stroke="#0c2239"/><path d="M681 491l7 108 85-41z" fill="#0b2239" stroke="#0b2239"/><path d="M681 491l92 67-25-68z" fill="#0a2137" stroke="#0a2137"/><path d="M748 490l25 68 22-35z" fill="#0c2239" stroke="#0c2239"/><path d="M795 523l-22 35 8 5z" fill="#0d243c" stroke="#0d243c"/><path d="M795 523l-14 40 75-46z" fill="#0d253c" stroke="#0d253c"/><path d="M856 517l-75 46 106-8zM856 517l31 38 41-64z" fill="#0e263f" stroke="#0e263f"/><path d="M928 491l-41 64 66 19z" fill="#0f2842" stroke="#0f2842"/><path d="M928 491l25 83 29-57z" fill="#102942" stroke="#102942"/><path d="M982 517l-29 57 62-5z" fill="#112b45" stroke="#112b45"/><path d="M982 517l33 52 36-52z" fill="#112c45" stroke="#112c45"/><path d="M1051 517l-36 52 68-31z" fill="#122d47" stroke="#122d47"/><path d="M1083 538l-68 31 60 27z" fill="#142f4a" stroke="#142f4a"/><path d="M1083 538l-8 58 61-18z" fill="#14304c" stroke="#14304c"/><path d="M1083 538l53 40 49-29z" fill="#15314d" stroke="#15314d"/><path d="M1083 538l102 11 14-36z" fill="#14304b" stroke="#14304b"/><path d="M1199 513l-14 36 37-20z" fill="#15314e" stroke="#15314e"/><path d="M1222 529l-37 20 19 48z" fill="#163350" stroke="#163350"/><path d="M1222 529l-18 68 42 55z" fill="#183654" stroke="#183654"/><path d="M-57 574l-1 42 69 31z" fill="#0b2137" stroke="#0b2137"/><path d="M50 560l-39 87 53 3z" fill="#0d243b" stroke="#0d243b"/><path d="M50 560l14 90 61-59z" fill="#0d243c" stroke="#0d243c"/><path d="M50 560l75 31-17-46z" fill="#0c2239" stroke="#0c2239"/><path d="M108 545l17 46 101-24z" fill="#0d253d" stroke="#0d253d"/><path d="M125 591l-61 59 37 40z" fill="#0f2740" stroke="#0f2740"/><path d="M125 591l-24 99 53-9z" fill="#102942" stroke="#102942"/><path d="M125 591l29 90 13-63z" fill="#0f2841" stroke="#0f2841"/><path d="M125 591l42 27 24-11zM125 591l66 16 35-40z" fill="#0e2740" stroke="#0e2740"/><path d="M226 567l-35 40 57-1zM226 567l22 39 45-34z" fill="#0f2942" stroke="#0f2942"/><path d="M293 572l-45 34 107 8z" fill="#102a44" stroke="#102a44"/><path d="M293 572l62 42-35-52z" fill="#102a43" stroke="#102a43"/><path d="M320 562l35 52 14-7z" fill="#112b45" stroke="#112b45"/><path d="M320 562l49 45 12-58z" fill="#102a43" stroke="#102a43"/><path d="M381 549l-12 58 60-20z" fill="#112b45" stroke="#112b45"/><path d="M429 587l-60 20 78 19z" fill="#122d47" stroke="#122d47"/><path d="M429 587l18 39 51-19z" fill="#132e48" stroke="#132e48"/><path d="M527 576l-29 31 49 49z" fill="#122c47" stroke="#122c47"/><path d="M527 576l20 80 31-58z" fill="#112b45" stroke="#112b45"/><path d="M578 598l-31 58 81 3z" fill="#112c46" stroke="#112c46"/><path d="M578 598l50 61 4-84z" fill="#102942" stroke="#102942"/><path d="M632 575l-4 84 60-60z" fill="#0f2841" stroke="#0f2841"/><path d="M688 599l-60 60 79-50z" fill="#0f2740" stroke="#0f2740"/><path d="M688 599l19 10 66-51z" fill="#0d253d" stroke="#0d253d"/><path d="M773 558l-66 51 83 14zM773 558l17 65-9-60z" fill="#0e263f" stroke="#0e263f"/><path d="M781 563l9 60 97-68z" fill="#0f2741" stroke="#0f2741"/><path d="M887 555l-97 68 100 28z" fill="#112b44" stroke="#112b44"/><path d="M887 555l3 96 25-41z" fill="#112c46" stroke="#112c46"/><path d="M887 555l28 55 38-36z" fill="#112b44" stroke="#112b44"/><path d="M953 574l-38 36 51 4zM953 574l13 40 49-45z" fill="#122d48" stroke="#122d48"/><path d="M1015 569l-49 45 86 11z" fill="#142f4b" stroke="#142f4b"/><path d="M1015 569l37 56 23-29z" fill="#14304c" stroke="#14304c"/><path d="M1075 596l-23 29 67 8zM1075 596l44 37 17-55z" fill="#16334f" stroke="#16334f"/><path d="M1136 578l-17 55 78-17z" fill="#173551" stroke="#173551"/><path d="M1136 578l61 38 7-19z" fill="#173552" stroke="#173552"/><path d="M1136 578l68 19-19-48z" fill="#163350" stroke="#163350"/><path d="M1204 597l-7 19 49 36z" fill="#193755" stroke="#193755"/><path d="M-58 616l35 79 34-48z" fill="#0d233b" stroke="#0d233b"/><path d="M11 647l-34 48 53 21z" fill="#0f263f" stroke="#0f263f"/><path d="M11 647l19 69 34-66z" fill="#0f273f" stroke="#0f273f"/><path d="M64 650l-34 66 71-26z" fill="#102942" stroke="#102942"/><path d="M167 618l-13 63 37-74z" fill="#102943" stroke="#102943"/><path d="M191 607l-37 74 50 32z" fill="#112c46" stroke="#112c46"/><path d="M191 607l13 106 44-107z" fill="#112b46" stroke="#112b46"/><path d="M248 606l-44 107 51 2z" fill="#132e49" stroke="#132e49"/><path d="M248 606l7 109 75-17z" fill="#132f4a" stroke="#132f4a"/><path d="M248 606l82 92 25-84z" fill="#122d48" stroke="#122d48"/><path d="M355 614l-25 84 58 15z" fill="#14304c" stroke="#14304c"/><path d="M355 614l33 99-19-106z" fill="#132e49" stroke="#132e49"/><path d="M369 607l19 106 53-26z" fill="#14304c" stroke="#14304c"/><path d="M369 607l72 80 6-61z" fill="#132f4a" stroke="#132f4a"/><path d="M447 626l-6 61 68 20z" fill="#15324e" stroke="#15324e"/><path d="M447 626l62 81-11-100z" fill="#142f4b" stroke="#142f4b"/><path d="M498 607l11 100 38-51z" fill="#132f4a" stroke="#132f4a"/><path d="M547 656l-38 51 36-20z" fill="#14304c" stroke="#14304c"/><path d="M547 656l-2 31 83-28z" fill="#132e49" stroke="#132e49"/><path d="M628 659l-83 28 87-3z" fill="#132d48" stroke="#132d48"/><path d="M628 659l4 25 37 24z" fill="#122d47" stroke="#122d47"/><path d="M628 659l41 49 38-99z" fill="#112a44" stroke="#112a44"/><path d="M707 609l-38 99 78-17zM707 609l40 82 18-32z" fill="#102943" stroke="#102943"/><path d="M707 609l58 50 25-36z" fill="#0f2842" stroke="#0f2842"/><path d="M765 659l-18 32 48-9z" fill="#112c46" stroke="#112c46"/><path d="M765 659l30 23-5-59z" fill="#112b45" stroke="#112b45"/><path d="M790 623l5 59 56 13z" fill="#122d47" stroke="#122d47"/><path d="M790 623l61 72 39-44z" fill="#122d48" stroke="#122d48"/><path d="M890 651l-39 44 69-1z" fill="#14304c" stroke="#14304c"/><path d="M890 651l30 43-5-84zM915 610l5 84 46-80z" fill="#132f4a" stroke="#132f4a"/><path d="M966 614l-46 80 58-9z" fill="#15324d" stroke="#15324d"/><path d="M966 614l12 71 74-60z" fill="#15314d" stroke="#15314d"/><path d="M1052 625l-74 60 98 2z" fill="#173451" stroke="#173451"/><path d="M1052 625l24 62 33-20z" fill="#183552" stroke="#183552"/><path d="M1052 625l57 42 10-34z" fill="#173551" stroke="#173551"/><path d="M1119 633l-10 34 34 15z" fill="#183755" stroke="#183755"/><path d="M1119 633l24 49 54-66z" fill="#183754" stroke="#183754"/><path d="M1197 616l-54 66 92-10z" fill="#193957" stroke="#193957"/><path d="M1197 616l38 56 11-20z" fill="#1a3958" stroke="#1a3958"/><path d="M30 716l225-1-51-2z" fill="#132e49" stroke="#132e49"/><path d="M30 716l174-3-103-23z" fill="#112c46" stroke="#112c46"/><path d="M101 690l103 23-50-32z" fill="#122c47" stroke="#122c47"/><path d="M255 715l133-2-58-15z" fill="#15324d" stroke="#15324d"/><path d="M388 713l281-5-160-1z" fill="#15324e" stroke="#15324e"/><path d="M388 713l121-6-68-20z" fill="#16334f" stroke="#16334f"/><path d="M509 707l160 1-124-21z" fill="#14304b" stroke="#14304b"/><path d="M545 687l124 21-37-24z" fill="#132e49" stroke="#132e49"/><path d="M669 708l407-21-156 7z" fill="#15314d" stroke="#15314d"/><path d="M669 708l251-14-69 1z" fill="#132f4a" stroke="#132f4a"/><path d="M669 708l182-13-104-4z" fill="#122d47" stroke="#122d47"/><path d="M747 691l104 4-56-13z" fill="#132e48" stroke="#132e48"/><path d="M920 694l156-7-98-2z" fill="#173451" stroke="#173451"/><path d="M1076 687l67-5-34-15z" fill="#193755" stroke="#193755"/></svg>